<svg id="Layer_1" data-name="Layer 1" xmlns="http://www.w3.org/2000/svg" viewBox="0 0 475.03 40.56"><defs><style>.cls-1{fill:#e6e7e8;}</style></defs><path class="cls-1" d="M227.54,33.18a2.65,2.65,0,0,0,.63.07c2-.21,4-.49,6.05-.63a55.46,55.46,0,0,0,6-.74c1.76-.3,3.55-.39,5.32-.64a14.37,14.37,0,0,0,3.41-.72,16.47,16.47,0,0,0,2.77-1.78l.31-.2c.4.26.25.55.1.85-.47.94-.92,1.9-1.41,2.82-.38.71-.85,1.37-1.2,2.1s-.48,1.29-.75,1.93a2.78,2.78,0,0,1-.38.54,2.58,2.58,0,0,1-.18-.74,14.26,14.26,0,0,0,.25-1.55c0-1.05-.67-1.39-1.65-1.05a6.19,6.19,0,0,1-1.67.25c-2.75.15-5.5.28-8.25.41-2.48.12-5,.18-7.43.35-1.9.13-3.79.38-5.69.59-.24,0-.47.15-.71.18-.55.09-1.11.13-1.66.22-.34.05-.68.15-1.08.24a1.86,1.86,0,0,1,.71-1.43c1-.85,1.87-1.76,2.81-2.64.77-.72,1.55-1.43,2.33-2.14.1-.1.25-.2.28-.32.23-1,1.18-1.42,1.79-2.11a10.84,10.84,0,0,1,.9-.75c1.14-1.05,2.28-2.11,3.43-3.15a5.08,5.08,0,0,1,.69-.38,5,5,0,0,0,1-.73c.71-.81,1.32-1.71,2.06-2.49,1-1,2-1.95,3.07-2.9s2.28-2,3.38-3c1.49-1.38,2.93-2.81,4.4-4.21.28-.28.58-.54,1-1a4.8,4.8,0,0,0-1-.13c-1.08.1-2.16.22-3.24.34a2.81,2.81,0,0,1-.49,0c-1.9-.15-3.73.46-5.61.44A6.07,6.07,0,0,1,235,9c-.17-.08-.56.09-.72.26a1.21,1.21,0,0,1-.93.45c-.83.05-1.65.25-2.48.35-1.16.14-2.32.24-3.48.39a15.67,15.67,0,0,0-5.27,1.33A8.94,8.94,0,0,0,220.58,13l-.57.51-.22-.1a4.15,4.15,0,0,1,.27-.82c.77-1.29,1.55-2.58,2.37-3.85s1.54-2.27,2.3-3.42c.29-.44.51-.93.77-1.39,0-.07.05-.19.11-.22.31-.15.63-.28.95-.42a7.61,7.61,0,0,1,.11,1.07c0,.12-.17.3-.31.35A2.89,2.89,0,0,0,225,6.49c-.27.63-.1.94.6,1,.5,0,1,0,1.53,0,3.86-.06,7.72-.11,11.58-.19,3.16-.06,6.31-.16,9.47-.25,1.72,0,3.44-.07,5.16-.15a2,2,0,0,0,.85-.47c.15-.11.24-.4.39-.43a.55.55,0,0,1,.47.28A.94.94,0,0,1,255,7a17.83,17.83,0,0,1-1.23,1.38c-.32.34-.65.68-1,1-.82.79-1.63,1.59-2.47,2.34-1.52,1.37-3.09,2.67-4.58,4.06-2.17,2-4.28,4.07-6.42,6.1-1,.95-2,1.85-3,2.8s-2,2-3,3c-.71.71-1.44,1.4-2.18,2.08s-1.37,1.22-2,1.86C228.6,32.08,228.13,32.58,227.54,33.18Z"/><path class="cls-1" d="M281,16c0,.85,0,1.7,0,2.55,0,.66.14,1.31.14,2,0,2.55,0,5.1-.07,7.64,0,1.15-.13,2.3-.22,3.44,0,.36.06.49.44.56a10.66,10.66,0,0,1,1.57.51,3.6,3.6,0,0,0,2.05.27c.2,0,.46.19.7.29-.23.16-.43.41-.68.45-1.74.29-3.49.52-5.23.81-.49.09-1,.34-1.45.48s-1.17.31-1.75.46l-.16-.23a4.11,4.11,0,0,1,.83-1A3.08,3.08,0,0,0,278.46,32c.35-1.95.48-3.95.66-5.93.05-.52-.08-1.06-.08-1.59a3.39,3.39,0,0,1,.14-1.44,1.68,1.68,0,0,0,0-1.57,2.4,2.4,0,0,1-.2-.83c-.06-2-.1-4.07-.14-6.1,0-.45.05-.9.08-1.35a3.11,3.11,0,0,0-2.82-3.46c-.67-.05-1.35,0-2-.09-.19,0-.36-.17-.54-.27a1.52,1.52,0,0,1,.51-.28c1-.13,2.08-.21,3.12-.31s2-.19,3-.32a1.54,1.54,0,0,1,1.66,1c.53,1,1,2,1.63,2.89a11,11,0,0,1,1.36,2.3,8.69,8.69,0,0,0,1.72,2.73c1.12,1.24,1.67,2.8,2.61,4.13s1.85,2.75,2.77,4.13c.4.61.8,1.22,1.21,1.83.11.16.25.3.5.6a4.11,4.11,0,0,0,.1-.77c-.15-1.63-.33-3.25-.49-4.89,0-.4,0-.81,0-1.22-.23-2.94,0-5.92-.61-8.83a16.75,16.75,0,0,0-.58-2.07,1.75,1.75,0,0,0-1.5-1.12,4.39,4.39,0,0,1-1.33-.39c2.75-.73,5.6-.47,8.38-.9.14,0,.3.13.56.25l-1.3,1c-.34.26-.69.52-1,.8-.52.44-1,.92-.64,1.69a.06.06,0,0,1,0,.06,20.59,20.59,0,0,0-.09,4.51c0,1.9,0,3.81,0,5.72,0,.22,0,.45,0,.67,0,.53,0,1,.07,1.58.08,1.28.18,2.56.24,3.85.08,2.15.14,4.3.21,6.45,0,.56.06,1.11,0,1.66,0,.22-.2.42-.31.63-.18-.14-.42-.23-.54-.41-.67-1-1.27-2-2-3-1-1.34-2-2.63-3-4-.62-.86-1.18-1.76-1.75-2.65-1.61-2.49-3.22-5-4.82-7.47-.61-.95-1.19-1.91-1.79-2.86a3.34,3.34,0,0,0-.35-.4Zm-.39,16.48a.68.68,0,0,0-.6.82c0,.08.28.2.36.16C280.79,33.23,280.82,32.9,280.61,32.45Z"/><path class="cls-1" d="M252.78,21.35c-.86-1.9,0-3.61.79-5.22a11.47,11.47,0,0,1,4.31-4.7c.7-.42,1.33-1,2.06-1.32.91-.45,1.89-.75,2.84-1.14.39-.15.75-.4,1.15-.52a2.46,2.46,0,0,1,1.18-.18,35.56,35.56,0,0,1,4.36,1.07,8.07,8.07,0,0,1,3.8,2.88,10.42,10.42,0,0,1,2.3,5.35,14.34,14.34,0,0,1,0,2.62A9,9,0,0,1,274.47,24a15,15,0,0,1-1,1.56c-.44.59-.94,1.13-1.41,1.7a13.14,13.14,0,0,1-3,2.61c-2.35,1.54-5.05,1.8-7.7,2.29a.9.9,0,0,1-.36,0,12.25,12.25,0,0,1-5.83-2.71,7.2,7.2,0,0,1-1.46-1.88,17.21,17.21,0,0,1-1.26-3.19,6.92,6.92,0,0,1-.11-2.23C252.28,21.86,252.59,21.62,252.78,21.35Zm19.21.11c-.1-1-.27-2-.28-3a7.65,7.65,0,0,0-.92-3.21,8.06,8.06,0,0,0-2.26-3A5,5,0,0,0,265,10.83a1,1,0,0,1-.54-.09,2.76,2.76,0,0,0-2.55.09,10.71,10.71,0,0,0-2.09,1.36,6.43,6.43,0,0,0-1.54,1.63,17.94,17.94,0,0,0-1.58,3.31,9.58,9.58,0,0,0-.72,4.75A17.56,17.56,0,0,1,256,25c0,.13,0,.34.11.37a2.72,2.72,0,0,1,1.5,1.6,3.89,3.89,0,0,0,1.73,1.51c1.88,1.12,3.76,2.33,6.13,1.39a3.71,3.71,0,0,1,.48-.1,6.73,6.73,0,0,0,4.51-3.27A10.8,10.8,0,0,0,272,21.46Z"/><path class="cls-1" d="M303.25,12.7l-.51-.1c-.3-.06-.77,0-.88-.19a3.57,3.57,0,0,1-.38-1.34c0-.11.32-.33.52-.38a6.34,6.34,0,0,1,1.16-.13l7.55-.42c.9,0,1.8-.08,2.71-.08.53,0,.79-.21.81-.75,0-.36,0-.76.51-.85a1,1,0,0,1,1,.6.57.57,0,0,1,.11.22c.08,1.32.93,2.35,1.36,3.53a11.24,11.24,0,0,0,.72,1.48c.14.29.44.6,0,.83-.09.05-.53-.3-.63-.54a3.35,3.35,0,0,0-1.43-1.87,7.84,7.84,0,0,0-2.44-.79,25.09,25.09,0,0,0-6.76.06.84.84,0,0,0-.85,1c0,2.09,0,4.19,0,6.28,0,.42.13.6.56.57,2.23-.12,4.46-.22,6.69-.33.58,0,1.15-.08,1.73-.1a6.47,6.47,0,0,0,2.86-.62,2.56,2.56,0,0,1,.93-.06,2.59,2.59,0,0,1-.11,1c-.55,1-1.15,2-1.76,3-.29.45-.5.39-.8,0a1.37,1.37,0,0,0-.84-.58c-1.6-.09-3.2-.13-4.8-.11-1.23,0-2.46.14-3.69.21-.42,0-.64.18-.64.63a18.18,18.18,0,0,1-.12,2.09c-.08.55-.32,1.08-.45,1.63a1.51,1.51,0,0,0,0,.7,5.42,5.42,0,0,1,.4,1.24c0,1.54-.06,3.08-.08,4.62,0,.81.05.88.83.82a16.11,16.11,0,0,0,2.07-.29c1.68-.34,3.38-.64,5-1.11a9.07,9.07,0,0,0,3.62-2.21c.24-.22.77-.53.85-.45.35.33,0,.68-.14,1-.42.88-.79,1.8-1.2,2.69-.32.68-.68,1.33-1,2-.08.14-.29.2-.51.35-.07-.36-.11-.64-.17-.92-.1-.47-.36-.59-.85-.5-2,.35-4,.7-6.06,1-1.57.21-3.15.28-4.72.44a3,3,0,0,0-1.18.31,3.47,3.47,0,0,1-2.1.25c-.13,0-.25-.15-.38-.23a2.38,2.38,0,0,1,.32-.38,1,1,0,0,1,.36-.07,2.76,2.76,0,0,0,1.93-2.27c0-2,.08-4.06.09-6.1,0-1.18-.08-2.37-.06-3.56a16.7,16.7,0,0,1,.23-1.69,2.74,2.74,0,0,0,0-.64c-.09-.64-.24-1.28-.3-1.92-.09-1-.15-2-.17-2.95s0-1.83.09-2.74c0-.2.28-.38.43-.56S303,12.94,303.25,12.7Z"/><path class="cls-1" d="M30.09,34c1,.84,2.05.66,3.09.63,0,.61-.36.67-.73.72l-6.61.85c-.18,0-.51-.07-.52-.14a.87.87,0,0,1,.14-.61c.44-.62,1-1.17,1.38-1.82a4.13,4.13,0,0,0,.67-1.78c.12-1.91,0-3.85.18-5.75.15-1.34-.15-2.61-.12-3.92q.12-5.07.25-10.15c.05-1.87.08-3.74.17-5.6a3.71,3.71,0,0,1,.4-1c.08-.18.17-.35.25-.53-.18-.07-.36-.12-.54-.2-.38-.16-.76-.33-1.13-.51a5.25,5.25,0,0,1-.8-.47A.5.5,0,0,1,26,3.25c0-.09.23-.21.35-.22,1.26,0,2.53-.1,3.79-.08a1.32,1.32,0,0,1,1.37,1.31c0,2.05-.14,4.1-.19,6.15,0,1.68,0,3.36,0,5.21a3.21,3.21,0,0,0,.58-.36A5.81,5.81,0,0,1,38.41,14a4.56,4.56,0,0,1,1.84,1.68,8.54,8.54,0,0,1,1.19,5.19c0,2.8-.14,5.59-.22,8.39,0,.77-.1,1.53-.13,2.3a2.5,2.5,0,0,0,2.21,2.63c.57.09,1.16.1,1.73.18a1.39,1.39,0,0,1,.43.23c-.1.16-.17.37-.32.46a1,1,0,0,1-.52.07l-5.27,0-.47,0c-1.24,0-1.38-.09-1.32-1.32.1-2.07.25-4.14.34-6.21a4.8,4.8,0,0,1,.35-2.51.4.4,0,0,0,0-.32c-.48-.66-.21-1.39-.28-2.09-.17-2-.39-3.9-.73-5.83a2.8,2.8,0,0,0-1-1.45c-.84-.69-1.73-.42-2.84.63a6.87,6.87,0,0,0-1.92,4,54.2,54.2,0,0,0-.61,11.38C30.87,32.43,31,33.28,30.09,34Z"/><path class="cls-1" d="M13.8,33.15c1.06.11,2.08-.53,3,.37-.56.16-1.11.37-1.67.47-1.59.3-3.18.58-4.78.83a4.08,4.08,0,0,1-1-.09,3,3,0,0,1,.26-1.06A6.76,6.76,0,0,0,10.89,30c.1-4.22.24-8.44.35-12.65,0-1.42,0-2.85,0-4.27,0-1,0-2.07.16-3.09a9.34,9.34,0,0,1,.48-2c.2-.59.12-.89-.47-.86a42,42,0,0,0-5.84.44,8.39,8.39,0,0,0-4.53,2.54c-.16.16-.22.41-.39.55A3.29,3.29,0,0,1,0,11a2.55,2.55,0,0,1,.09-.84A12.28,12.28,0,0,1,.87,8.91c.52-.86,1.06-1.71,1.55-2.59.41-.72.73-1.49,1.12-2.22.29-.54.63-1,.94-1.57l.31.09a9.06,9.06,0,0,1-.07.91c0,.24-.19.46-.24.7-.14.65,0,.82.65.82,2.41,0,4.83.06,7.25,0,2.61-.09,5.21-.32,7.82-.49a13.49,13.49,0,0,1,1.42,0c.47,0,.68-.14.64-.62,0-.28,0-.56,0-.84L22.45,3c.14.13.36.25.42.42.77,2.16,1.52,4.32,2.27,6.49.18.53.31,1.07.5,1.59.11.34.26.71-.17.85-.15,0-.57-.29-.62-.51a9.41,9.41,0,0,0-2.29-4,2.76,2.76,0,0,0-2.15-.93c-1.42-.09-2.84,0-4.27,0-1,0-1.2.29-1.21,1.29,0,1.76,0,3.52,0,5.28,0,2-.12,4-.14,6,0,.85.11,1.71.08,2.56s-.18,1.55-.27,2.33a2.29,2.29,0,0,0,0,.64,10.06,10.06,0,0,1,.3,1.68c0,1.45-.09,2.89-.25,4.32A5.86,5.86,0,0,1,14,32.58C13.94,32.73,13.9,32.87,13.8,33.15Z"/><path class="cls-1" d="M49.79,27a6.21,6.21,0,0,0,1,4.35A5.4,5.4,0,0,0,55.6,34a8.1,8.1,0,0,0,5.52-2.35,1.84,1.84,0,0,0,.73-1.71c-.07-.58.32-.89.88-.8s.71.32.51.81a8.9,8.9,0,0,1-2.12,3.23,14.79,14.79,0,0,1-2.77,2,6.22,6.22,0,0,1-2.24.65,6.92,6.92,0,0,1-3.8-.19,1,1,0,0,0-.39-.1,5.61,5.61,0,0,1-3.68-2.11,1.15,1.15,0,0,1-.23-.8,1,1,0,0,0-.51-.86,1.84,1.84,0,0,1-.69-.89,15.4,15.4,0,0,1,.06-8.46,11.81,11.81,0,0,1,5.22-7.27,7.16,7.16,0,0,1,5.43-1.23,6,6,0,0,1,3.73,1.82,3.17,3.17,0,0,1,1.21,2.52.67.67,0,0,0,.07.4,5.09,5.09,0,0,1,.68,3c0,.85-.13,1.13-1,1.21-1.32.14-2.65.24-4,.34a28.61,28.61,0,0,1-3.57.21,20.21,20.21,0,0,0-3.48.2c-.9.1-1.18.3-1.32,1.2a6.47,6.47,0,0,0-.11.87C49.77,26.13,49.79,26.61,49.79,27Zm3.59-5.8v0c1.73-.11,3.46-.22,5.19-.35.77-.05,1.08-.39.94-1.13a10.58,10.58,0,0,0-.62-2.32A3.67,3.67,0,0,0,53.34,16c-1.53,1.17-2.12,2.91-2.73,4.63-.17.48,0,.79.61.75Z"/><path class="cls-1" d="M214.13,16.61c-.25-.06-.58,0-.74-.19a7.14,7.14,0,0,0-3.6-2.21,3.21,3.21,0,0,0-.61-.09c-1.17,0-2.34.09-3.51.12-.42,0-.57.18-.57.6,0,2.58-.06,5.17-.13,7.75-.05,1.71-.2,3.41-.24,5.11,0,2.07,0,4.14,0,6.2a11.58,11.58,0,0,1-.19,1.43c.64-.06,1.26-.09,1.87-.17a8.06,8.06,0,0,1,.9-.19c.25,0,.63.14.71.32a1,1,0,0,1-.1.85.79.79,0,0,1-.72.27c-1.16-.51-2.24-.14-3.37.09s-2.08.18-3.12.31a9.79,9.79,0,0,0-1.39.36c-.25.07-.51.16-.76.25l-.15-.23c.19-.19.35-.45.58-.55a3.22,3.22,0,0,0,2.13-3.07c0-2.26,0-4.53.26-6.77.08-.94.09-1.85.1-2.79,0-2.69.2-5.37.34-8.06a13.38,13.38,0,0,1,.3-1.57,1.76,1.76,0,0,0-.5-.11c-1.06.05-2.13.13-3.19.21A3.38,3.38,0,0,0,196,16.07a13.19,13.19,0,0,1-1.61,1.65c-.08.08-.4.08-.42,0a.76.76,0,0,1-.05-.51c.36-1,.77-2.07,1.1-3.13.17-.54.14-1.14.32-1.67a6.9,6.9,0,0,1,.83-1.44s.35.06.48.17.08.27.1.41c.11,1,.1,1,1.1.84a17.11,17.11,0,0,1,2-.12l9.3.12c.39,0,.78-.05,1.17-.06.63,0,1.21,0,1.13-.93,0-.1.22-.31.31-.29a.64.64,0,0,1,.47.27c.37.84.7,1.7,1,2.56.28.67.58,1.35.87,2Z"/><path class="cls-1" d="M110.82,24.81c.27-.59.56-1.18.82-1.78.48-1.15,1-2.3,1.4-3.46.21-.53.31-1.11.56-1.62a12,12,0,0,0,1-3.46,2.05,2.05,0,0,0-.54-1.93c-.17-.17-.41-.52-.34-.64a.93.93,0,0,1,.68-.43c1.14-.07,2.29,0,3.43-.09.69,0,1.38-.14,2.07-.22a2.2,2.2,0,0,1,.67-.06c.21,0,.54.15.58.3a.83.83,0,0,1-.18.71.79.79,0,0,1-.71.09,1.91,1.91,0,0,0-2.19.12,1,1,0,0,0-.46.4c-.31.67-.6,1.36-.88,2s-.59,1.51-.9,2.26c-.22.57-.48,1.13-.69,1.71-.43,1.18-.81,2.39-1.27,3.56-.25.67-.63,1.29-.9,1.95-.83,2-1.64,4.08-2.45,6.13-.21.55-.36,1.13-.57,1.67a.67.67,0,0,1-.41.37c-.13,0-.33-.21-.39-.37A69.52,69.52,0,0,1,107,24.7c-.22-.85.1-1.77-.71-2.54-.4-.39-.38-1.21-.55-1.83l-.24,0c-.46,1.32-.92,2.65-1.37,4-.05.13,0,.33-.11.41-.89.74-.76,1.9-1.16,2.84-.76,1.82-1.43,3.68-2.14,5.53a1.33,1.33,0,0,1-.18.38c-.12.15-.28.38-.42.38s-.35-.21-.43-.37c-.63-1.26-1.22-2.55-1.86-3.81-.39-.78-.89-1.51-1.25-2.31s-1-1.42-.83-2.37a.42.42,0,0,0-.18-.35c-1-.54-1.22-1.65-1.66-2.57-.55-1.14-1-2.32-1.49-3.49a24.54,24.54,0,0,1-.9-2.34,2.18,2.18,0,0,1,0-1.1c.07-.29.19-.56-.21-.61a1.75,1.75,0,0,1-1.23-.94.79.79,0,0,0-.88-.35,6.11,6.11,0,0,1-1.28.07c-.18,0-.35-.22-.52-.33a2.29,2.29,0,0,1,.4-.55,1,1,0,0,1,.53-.1L94.1,12c.84,0,1.68-.11,2.52-.11a2.14,2.14,0,0,1,.71.32,3.47,3.47,0,0,1-.7.45c-.34.12-.74.08-1.07.23A1.44,1.44,0,0,0,94.69,15c.74,1.82,1.53,3.62,2.33,5.42s1.51,3.35,2.28,5c.37.79.79,1.55,1.27,2.48a6.1,6.1,0,0,0,.5-.79,74.29,74.29,0,0,0,2.75-8.19c.24-.86.51-1.72.76-2.58.31-1-.54-3.67-1.45-4.25a9.36,9.36,0,0,0-1.52-.64l-.82-.32v-.2a2.42,2.42,0,0,1,.61-.24c1.7-.16,3.4-.32,5.1-.41a1.18,1.18,0,0,1,.85.53,4.24,4.24,0,0,1,.43,1.33c.26,1.14.45,2.29.74,3.42a6,6,0,0,0,.61,1.1c.09.18.24.45.17.57a2.05,2.05,0,0,0-.13,1.66c.38,1.7.74,3.4,1.12,5.1a5.61,5.61,0,0,0,.26.79Z"/><path class="cls-1" d="M88.24,39a3.68,3.68,0,0,1-.77.26l-7.58.85c-1.21.13-2.42.3-3.63.43a1.07,1.07,0,0,1-.4-.14c.11-.09.22-.26.34-.26a4.65,4.65,0,0,0,2.74-1.4,3.47,3.47,0,0,0,1.11-2.33c.24-1.7.31-3.43.39-5.15.11-2.56.11-5.13.27-7.69a16.94,16.94,0,0,0,.05-2.67A55.46,55.46,0,0,1,80.9,15c0-2.13,0-4.27,0-6.4,0-.79-.08-1.56.67-2.12a1.68,1.68,0,0,0,.4-.81.39.39,0,0,0-.18-.36,1.82,1.82,0,0,0-.66-.09l-4.81.11a1,1,0,0,1-.54-.07c-.86-.63-1.73-.23-2.58,0a8.37,8.37,0,0,0-3.46,1.36L68.38,7.78c-.15.13-.26.32-.43.42s-.3.05-.45.07c0-.17-.11-.38,0-.51.5-1,1.07-1.86,1.53-2.82.54-1.11,1-2.25,1.47-3.37.07-.15.08-.36.19-.45a.94.94,0,0,1,.61-.25c.1,0,.22.34.25.54a1.88,1.88,0,0,1-.12.6c-.2.86.06,1.23,1,1.29s1.56.06,2.34.06c2.47,0,4.93,0,7.4-.07,2,0,4.1-.09,6.16-.1.68,0,1.37.15,2.06.21a1,1,0,0,0,.54,0,3.8,3.8,0,0,1,2.23-.27c1.23.08,1.48-.29,1-1.46a10.07,10.07,0,0,1-.43-1.2c0-.14.08-.44.16-.45a.65.65,0,0,1,.53.15,3.33,3.33,0,0,1,.44.81c.61,1.49,1.23,3,1.82,4.48Q97.32,7.33,98,9.23c.15.41.42,1-.15,1.16s-.5-.54-.59-.91a5.23,5.23,0,0,0-3.19-3.93,3.3,3.3,0,0,0-1.25-.23q-3.42,0-6.84,0c-.88,0-1,.19-1.08,1.06,0,1,0,2.06-.06,3.09q-.06,6-.11,11.93c0,2.45-.07,4.89-.1,7.34,0,.49-.08.95-.73,1-.1,0-.27.17-.26.25s.1.35.21.39c.66.23.68.74.65,1.3,0,1.17-.11,2.34-.11,3.51a24.1,24.1,0,0,0,.15,2.82.93.93,0,0,0,.6.63c.77.05,1.55,0,2.32,0a4.06,4.06,0,0,1,.77.1Z"/><path class="cls-1" d="M182.72,34.64c-.25.15-.49.4-.76.43-1,.12-2.07.16-3.11.25s-2.12.21-3.18.31c-.28,0-.56,0-1,0,.16-.23.22-.42.34-.49a4.77,4.77,0,0,0,2.21-4.28c.07-2.37-.17-4.75-.27-7.13a5.37,5.37,0,0,1,.26-2.66c.13-.28-.08-.71-.08-1.07,0-2.55-.07-5.09-.11-7.63,0-.92-.07-1.85-.13-2.77a1,1,0,0,0-1.09-1,.7.7,0,0,1-.36-.05.76.76,0,0,1-.34-.37c0-.07.17-.28.31-.31a5.49,5.49,0,0,1,1.14-.23c1.59-.14,3.19-.24,4.79-.37.4,0,.81-.18,1.21-.17a1.87,1.87,0,0,1,.71.29,2.5,2.5,0,0,1-.48.73c-.16.13-.48,0-.71.1a6.56,6.56,0,0,0-1.17.34c-.43.18-.54.48-.37,1a4.4,4.4,0,0,1,.11,1.5c0,2.45-.06,4.89,0,7.33,0,1.09.28,1.26,1.36,1.2,1.64-.1,3.28-.15,4.92-.23.87,0,1-.16,1-1,0-1.36.14-2.71.09-4.06a21,21,0,0,0-.42-3,1.25,1.25,0,0,0-1.1-1.08,7.5,7.5,0,0,1-1.16-.45V9.43a2.44,2.44,0,0,1,.71-.31c1.65-.11,3.31-.19,5-.26.76,0,1.51,0,2.27,0,.19,0,.53.17.53.24a1,1,0,0,1-.27.65,1.53,1.53,0,0,1-.75.22c-.89.11-.94.18-1.18,1a22,22,0,0,0-.53,5.54c0,2.3-.09,4.6-.1,6.9,0,2.85,0,5.69,0,8.53a5.21,5.21,0,0,0,.15.88,1.9,1.9,0,0,1,2.25-.08c.22.09.37.35.56.53-.24.18-.47.49-.72.53-.8.1-1.6.09-2.4.13l-4.29.24a1.15,1.15,0,0,1-.37,0c-.24-.06-.47-.15-.71-.23a3.48,3.48,0,0,1,.57-.46,2.36,2.36,0,0,0,1.54-2.23c.06-1.78.23-3.55.28-5.33,0-1.41,0-2.83,0-4.24a1.18,1.18,0,0,0-1.41-1c-1.45.2-2.89.41-4.33.59-1.14.15-1.36.36-1.34,1.54s.05,2.62.09,3.94a1.55,1.55,0,0,1-.62,1.45c-.46.32-.44.67,0,1.07a1.43,1.43,0,0,1,.38.74,4.38,4.38,0,0,1-.42,3.32c-.31.45-.09.83.48.89s1.11,0,1.67.07a2.22,2.22,0,0,1,.41.1Z"/><path class="cls-1" d="M169,27.84a39,39,0,0,0-.55-4.19,2.11,2.11,0,0,0-2.24-1.77,1.18,1.18,0,0,1-.49-.06c-.6-.19-1.17-.36-1.66.25a.55.55,0,0,1-.45.15,1.69,1.69,0,0,1-.51-.2,2.18,2.18,0,0,1,.29-.52.65.65,0,0,1,.41-.12l10-.94a5.23,5.23,0,0,1,1-.06c.18,0,.34.22.5.34a5.14,5.14,0,0,1-.49.32,3.86,3.86,0,0,0-1.17.57,3,3,0,0,0-.94,2.3c.12,1.7.11,3.4.13,5.11a1.11,1.11,0,0,1-.16.69c-.58.6-1.2,1.16-1.83,1.72a23.3,23.3,0,0,1-5.4,3.14,11.84,11.84,0,0,1-4.67,1.09,14.85,14.85,0,0,1-3.83-.33,8,8,0,0,1-5.11-3,11.1,11.1,0,0,1-2.24-6.14,26,26,0,0,1,.12-4.91A12.76,12.76,0,0,1,151,16.6a11,11,0,0,1,2.05-3.09c1.07-1,2.08-2,3.2-2.92a9,9,0,0,1,1.89-.95s.14,0,.18,0c1.07-.91,2.44-.77,3.69-.95a13.17,13.17,0,0,1,5,.22c.63.15,1.24.38,1.86.57.46.14.72-.07.78-.52a6.94,6.94,0,0,0,0-.79,3.62,3.62,0,0,1,0-1c.07-.26.36-.45.55-.67a2.37,2.37,0,0,1,.43.65c.42,1.47.82,2.94,1.21,4.42.33,1.29.65,2.58,1,3.88,0,.13-.11.3-.17.46-.13-.08-.26-.15-.39-.24s0-.07,0-.11c-.6-2-2.31-3-3.94-4a10.47,10.47,0,0,0-6-1.41,6.41,6.41,0,0,0-4.79,2.25A6.4,6.4,0,0,0,156,15a11.1,11.1,0,0,1-1,2.09,17.32,17.32,0,0,0-1.17,5.31,11.3,11.3,0,0,0,.15,4.22s0,.05,0,.06c-.78,1.05.33,1.62.67,2.32a12.83,12.83,0,0,0,1.89,2.83,6,6,0,0,0,3.73,2.18,6.51,6.51,0,0,0,3.74-.43c.93-.45,1.95-.73,2.84-1.24a10.54,10.54,0,0,0,1.82-1.54.67.67,0,0,0,.11-.46c0-.84,0-1.68,0-2.52Z"/><path class="cls-1" d="M143.66,31a12.88,12.88,0,0,1-.52,1.43c-.46.93-1,1.85-1.47,2.76a1.36,1.36,0,0,1-.61.46c-.05,0-.3-.28-.37-.46-.16-.51-.57-.47-.95-.49-1.56,0-3.12-.1-4.68-.13-2.1,0-4.19-.05-6.28-.1a.88.88,0,0,1-.59-.2c-.07-.09,0-.41.15-.55a5.4,5.4,0,0,0,.94-3.38c.11-2.44.09-4.88.14-7.32a8.69,8.69,0,0,1,.23-1.32,1,1,0,0,0,.07-.29c-.07-1.65-.16-3.3-.22-5,0-1-.1-2.09-.06-3.14a9.56,9.56,0,0,1,.34-2c.08-.32.14-.52-.22-.69a2.46,2.46,0,0,1-.56-.47c-.38-.33-.76-.66-1.11-1a4.47,4.47,0,0,1-.45-.6,5.35,5.35,0,0,1,.64-.41,1.27,1.27,0,0,1,.48,0l5.24.1a1.8,1.8,0,0,1,.51.2,1.88,1.88,0,0,1-.43.37,1.25,1.25,0,0,0-.8,1.19c0,.84-.09,1.68-.1,2.52a.94.94,0,0,0,.48,1c.55.31.5,1-.08,1.57a1.41,1.41,0,0,0-.53,1.11c0,3-.12,6.08-.12,9.11,0,1.56.14,3.12.16,4.68a11.33,11.33,0,0,1-.21,2.24c-.11.59-.06.77.57.73,1.5-.09,3-.24,4.48-.34A10.91,10.91,0,0,0,143,31.11a.56.56,0,0,1,.23-.07A2.18,2.18,0,0,1,143.66,31Z"/><path class="cls-1" d="M118.33,36a3.71,3.71,0,0,1,.42-.41,3.17,3.17,0,0,0,1.47-2.41,50.27,50.27,0,0,0,.42-8.22c0-.72-.14-1.43-.16-2.15,0-.5.07-1,.08-1.51s-.07-1.1,0-1.65a20.62,20.62,0,0,1,.14-2.36,1,1,0,0,0-.89-1.26c-.3-.05-.62,0-.92,0a2,2,0,0,1-.57-.34,3.57,3.57,0,0,1,.5-.45.77.77,0,0,1,.41-.07l5.36-.11a4.88,4.88,0,0,1,.72.12c-.14.24-.2.43-.34.53a2.48,2.48,0,0,0-.91,2.18c0,1.71.09,3.41.18,5.11a2.66,2.66,0,0,1-.44,1.86,1.07,1.07,0,0,0-.06.67A13.53,13.53,0,0,1,124,27c.06,1,0,2.05,0,3.08a5.58,5.58,0,0,1-.38,2.65,1,1,0,0,0,.16,1.14c.17.22.23.52.39.75.59.89.41,1.05-.59,1.14-1.57.14-3.15.24-4.72.35A2.51,2.51,0,0,1,118.33,36Z"/><path class="cls-1" d="M141.63,28.23a9.55,9.55,0,0,0,.74-1.69c.34-1.41.57-2.84.85-4.26a.41.41,0,0,0,0-.19c-.68-1.88-.05-3.83-.31-5.74a15.89,15.89,0,0,1-.14-2.39,3.59,3.59,0,0,1,.35-1.32c.12-.27.17-.41-.11-.61a3.5,3.5,0,0,1-.58-.63l-1-1.14c-.11-.13-.3-.33-.26-.43a.64.64,0,0,1,.42-.35,14.27,14.27,0,0,1,1.83-.22c1.11,0,2.22,0,3.33,0,.41,0,.91,0,.89.58s-.5.53-.89.54c-1,0-1.12.12-1.06,1.17a126.05,126.05,0,0,1,.23,13,1.58,1.58,0,0,1-.58,1.28c-.26.22-.32.68-.48,1L145,27a2.59,2.59,0,0,1,.6-.18,1.46,1.46,0,0,1,.84.05,3.08,3.08,0,0,1,.57.81c-.27.15-.53.41-.81.44-1.39.12-2.78.19-4.17.26A1.66,1.66,0,0,1,141.63,28.23Z"/><path class="cls-1" d="M337.71,20.37c.42-2.4,1.13-6.68,1.18-7.43a18,18,0,0,0-2.76-.37V12c.92.05,3.6.11,4.63.11s7.88,0,8.47-.16c.13-.32.49-1.31.68-1.89l.63-.14a64.44,64.44,0,0,0-1.6,6.55l-.58-.21a19.22,19.22,0,0,0,.24-2.1c-.8-.91-5-1.26-6.33-1.26-.2.38-1.12,5.14-1.47,7.14l-.1.58a36.52,36.52,0,0,0,5.68-.37c.2-.4.45-1.06.65-1.57l.57-.08c-.38,1.28-1.06,3.94-1.47,5.93l-.53-.15c.1-.56.2-1.47.27-2.27-.56-.48-3.8-.66-5.32-.66l-.14.8c-.39,2.21-1.14,6.92-1.14,7.66a24.83,24.83,0,0,0,2.87.37v.56c-.92-.05-3.09-.1-4.87-.1-1.52,0-3.53.05-4.47.1l.21-.56a27.35,27.35,0,0,0,2.88-.37c.19-.61,1-5,1.53-7.9Z"/><path class="cls-1" d="M359.25,30.29a21.46,21.46,0,0,0,2.75-.37c-.23-1.38-1.13-7-1.42-7.8-.93,0-5.19.19-6.21.35a73.6,73.6,0,0,0-3.17,7.45,13.53,13.53,0,0,0,2.22.37v.56c-.82-.05-3.23-.1-4-.1s-2.49.05-3.11.1l.18-.56a22.33,22.33,0,0,0,2.36-.37c1.25-1.68,9.07-16,9.62-17a18.08,18.08,0,0,0-2-.34l.07-.56c.79.05,3,.11,3.44.11,1.12,0,3.79-.06,4.57-.11l-.18.56a18.81,18.81,0,0,0-2.08.34c.11,1.18.84,5.35,1.36,8.15a76,76,0,0,0,2.06,8.86c.74.16,1.49.27,2.27.37l0,.56c-.31-.05-3-.1-4.4-.1-.77,0-3.78.05-4.51.1Zm0-16.92h-.06c-1.24,2.37-3.78,7-4.2,7.85l5.57.1C360.26,19.57,359.42,14.83,359.23,13.37Z"/><path class="cls-1" d="M371.1,12.12c1.5-.06,4-.08,6.1-.19.43.9,4.6,7.61,5,8.09.57.75,3.89,5.88,4.62,6.6.52-2.95,2.14-12.29,1.85-13.68a25.81,25.81,0,0,0-2.62-.37l0-.56c.5.05,3.36.11,3.95.11s2.8-.06,3.37-.11l-.2.56c-.36,0-1.35.26-2.09.37a47.08,47.08,0,0,0-1.5,5.64c-.3,1.25-2.49,12.43-2.83,13.5-.67-.75-6.53-9.34-7-10-.3-.4-4.27-6.57-5-7.58-.17.53-2.32,14.5-2.14,15.46.38.13,2.34.32,2.84.37l0,.56c-.47-.05-3.23-.1-3.92-.1s-2.86.05-3.64.1l.18-.56a16.31,16.31,0,0,0,2.27-.37C370.9,28.8,373.83,13.87,374,13a22.26,22.26,0,0,0-2.87-.31Z"/><path class="cls-1" d="M419,17.92a19.76,19.76,0,0,0,.23-2.21c-.3-1.17-2.44-3.09-5.87-3.09a9.38,9.38,0,0,0-9.26,7.67c-.91,5.19,2.6,9.58,8.21,9.58a14.13,14.13,0,0,0,6.57-1.44l-.58,1.14c-.7.51-3.58,1.6-7.76,1.6A13.63,13.63,0,0,1,404.68,30a7.47,7.47,0,0,1-4.08-8.14,11.7,11.7,0,0,1,5.61-8,14.83,14.83,0,0,1,8.32-2.21,23.18,23.18,0,0,1,5.44.69c.22-.34.84-2.05,1-2.37l.63-.13a72.58,72.58,0,0,0-2,8.22Z"/><path class="cls-1" d="M425.43,19.44c.27-1.52,1-5.65,1-6.5-.57-.11-2.1-.32-2.79-.37l0-.56c.66.05,3,.11,4.59.11,1.78,0,4.37-.06,4.91-.11l-.23.56c-.65,0-2.12.26-3.2.37-.26.85-1,4.69-1.34,6.81l-.17,1c-.61,3.49-1.49,8.6-1.48,9.18a14,14,0,0,0,6.6-1.35,30,30,0,0,0,1.49-3l.66-.1a87,87,0,0,0-3,8.75L432,34c.06-.37.55-2.4.68-3.11-.58-.06-6.31-.16-7.75-.16s-3.78.05-4.54.1l.21-.56a19.43,19.43,0,0,0,2.88-.37c.32-1.17,1.25-6.31,1.71-8.94Z"/><path class="cls-1" d="M440.13,19c.42-2.4.88-5.27.93-6-.54-.13-1.34-.26-2-.37l0-.56c.74.05,2.43.11,4.48.11,1.22,0,3.28-.06,4-.11l-.24.56c-.73.08-1.95.21-2.83.37-.16.45-.81,3.83-1.21,6.12l-.63,3.54c-1,5.64,1.07,7.56,3.94,7.56a6.08,6.08,0,0,0,4.06-1.28c1.68-1.35,2.43-3.7,3-6.89l.43-2.45c.15-.85,1-5.72,1-6.6-.59-.11-2.15-.32-2.84-.37l-.08-.56c.65.05,2.64.11,4.29.11,1.38,0,2.8-.06,3.27-.11l-.26.56c-.47.11-1.21.21-1.93.37-.15.4-.79,3.73-.92,4.45l-.22,1.27c-.19,1-.36,2.32-.53,3.28-.53,3-1.54,5.56-3.91,7.37A9.2,9.2,0,0,1,446,31.17c-5.51,0-7.43-3.4-6.61-8.06Z"/><path class="cls-1" d="M463.59,20.1c.34-1.92,1-6.07,1.07-7.16a24.61,24.61,0,0,0-2.69-.26l0-.56c.88,0,6-.22,7.67-.22,5.19,0,5.6,2.21,5.38,3.46a4.72,4.72,0,0,1-1.13,2.5,9.75,9.75,0,0,1-3.93,2.77v.08c2.56.43,5.05,2.32,4.55,5.14-.54,3.06-3.4,5.11-7.1,5.11-.37,0-1.27-.05-2.22-.11s-1.9-.1-2.45-.1-3.29.05-4.07.1l.21-.56a24.06,24.06,0,0,0,2.83-.37c.51-1.84,1.21-5.8,1.62-8.14Zm2.76.61a6.43,6.43,0,0,0,3.36-.9,5.1,5.1,0,0,0,2.13-3.36c.41-2.28-.73-3.83-2.91-3.83a3.32,3.32,0,0,0-1.1.16c-.1.27-.79,4-1.21,6.44ZM466,23a60.67,60.67,0,0,0-.84,6.6,3.7,3.7,0,0,0,2,.56,3.82,3.82,0,0,0,4.16-3.25,4.64,4.64,0,0,0-2.07-4.71,5.71,5.71,0,0,0-3-.64Z"/></svg>